<svg width="1920" height="955" xmlns="http://www.w3.org/2000/svg"><g><path d="M-54,-56L-80,239L-58,170Z" fill="#fffcf7" stroke="#fffcf7"/><path d="M-54,-56L-58,170L-37,77Z" fill="#fffdfa" stroke="#fffdfa"/><path d="M-54,-56L-37,77L-29,78Z" fill="#fffcfa" stroke="#fffcfa"/><path d="M-54,-56L-29,78L60,-3Z" fill="#fffbf8" stroke="#fffbf8"/><path d="M-54,-56L60,-3L115,-20Z" fill="#fff8f5" stroke="#fff8f5"/><path d="M-54,-56L115,-20L161,-40Z" fill="#fff7f3" stroke="#fff7f3"/><path d="M-54,-56L161,-40L310,-80Z" fill="#fff3ee" stroke="#fff3ee"/><path d="M60,-3L-29,78L48,63Z" fill="#fff9f5" stroke="#fff9f5"/><path d="M60,-3L48,63L101,8Z" fill="#fff7f2" stroke="#fff7f2"/><path d="M60,-3L101,8L115,-20Z" fill="#fff6f1" stroke="#fff6f1"/><path d="M115,-20L101,8L208,39Z" fill="#fff3ee" stroke="#fff3ee"/><path d="M115,-20L208,39L161,-40Z" fill="#fff2ec" stroke="#fff2ec"/><path d="M161,-40L208,39L278,11Z" fill="#fff0e8" stroke="#fff0e8"/><path d="M161,-40L278,11L310,-80Z" fill="#ffede5" stroke="#ffede5"/><path d="M310,-80L278,11L399,-70Z" fill="#fee6db" stroke="#fee6db"/><path d="M310,-80L399,-70L485,-77Z" fill="#fee0d4" stroke="#fee0d4"/><path d="M310,-80L485,-77L1277,-84Z" fill="#fec4b4" stroke="#fec4b4"/><path d="M399,-70L278,11L356,62Z" fill="#fee4da" stroke="#fee4da"/><path d="M399,-70L356,62L405,47Z" fill="#fee1d4" stroke="#fee1d4"/><path d="M399,-70L405,47L449,-65Z" fill="#feded1" stroke="#feded1"/><path d="M399,-70L449,-65L485,-77Z" fill="#fedcce" stroke="#fedcce"/><path d="M449,-65L405,47L526,16Z" fill="#fedacd" stroke="#fedacd"/><path d="M449,-65L526,16L485,-77Z" fill="#fed7ca" stroke="#fed7ca"/><path d="M485,-77L526,16L617,-52Z" fill="#fed2c3" stroke="#fed2c3"/><path d="M485,-77L617,-52L878,-54Z" fill="#fec7b7" stroke="#fec7b7"/><path d="M485,-77L878,-54L1277,-84Z" fill="#fdb2a3" stroke="#fdb2a3"/><path d="M617,-52L526,16L639,-3Z" fill="#fecdbe" stroke="#fecdbe"/><path d="M617,-52L639,-3L703,-42Z" fill="#fec8b8" stroke="#fec8b8"/><path d="M617,-52L703,-42L878,-54Z" fill="#fec0b0" stroke="#fec0b0"/><path d="M703,-42L639,-3L709,4Z" fill="#fec5b5" stroke="#fec5b5"/><path d="M703,-42L709,4L764,-16Z" fill="#fec1b1" stroke="#fec1b1"/><path d="M703,-42L764,-16L878,-54Z" fill="#fdbbab" stroke="#fdbbab"/><path d="M764,-16L709,4L776,11Z" fill="#fdbeae" stroke="#fdbeae"/><path d="M764,-16L776,11L880,-40Z" fill="#fdb9a9" stroke="#fdb9a9"/><path d="M764,-16L880,-40L878,-54Z" fill="#fdb6a6" stroke="#fdb6a6"/><path d="M880,-40L776,11L802,80Z" fill="#fdb8a7" stroke="#fdb8a7"/><path d="M880,-40L802,80L923,30Z" fill="#fdb3a3" stroke="#fdb3a3"/><path d="M880,-40L923,30L974,-4Z" fill="#fbada0" stroke="#fbada0"/><path d="M880,-40L974,-4L878,-54Z" fill="#fcaea1" stroke="#fcaea1"/><path d="M878,-54L974,-4L1045,-38Z" fill="#faa89d" stroke="#faa89d"/><path d="M878,-54L1045,-38L1277,-84Z" fill="#f79d96" stroke="#f79d96"/><path d="M974,-4L923,30L956,34Z" fill="#fbaa9d" stroke="#fbaa9d"/><path d="M974,-4L956,34L1055,124Z" fill="#f9a59a" stroke="#f9a59a"/><path d="M974,-4L1055,124L1104,5Z" fill="#f8a096" stroke="#f8a096"/><path d="M974,-4L1104,5L1045,-38Z" fill="#f8a098" stroke="#f8a098"/><path d="M1045,-38L1104,5L1138,-33Z" fill="#f59b95" stroke="#f59b95"/><path d="M1045,-38L1138,-33L1277,-84Z" fill="#f09693" stroke="#f09693"/><path d="M1138,-33L1104,5L1198,24Z" fill="#f19793" stroke="#f19793"/><path d="M1138,-33L1198,24L1277,-84Z" fill="#ec9291" stroke="#ec9291"/><path d="M1277,-84L1198,24L1313,-5Z" fill="#e78d8f" stroke="#e78d8f"/><path d="M1277,-84L1313,-5L1324,-18Z" fill="#e38b8e" stroke="#e38b8e"/><path d="M1277,-84L1324,-18L1431,-63Z" fill="#e08a8d" stroke="#e08a8d"/><path d="M1277,-84L1431,-63L1882,-82Z" fill="#cd868a" stroke="#cd868a"/><path d="M1324,-18L1313,-5L1405,54Z" fill="#df8a8d" stroke="#df8a8d"/><path d="M1324,-18L1405,54L1435,-33Z" fill="#dc898c" stroke="#dc898c"/><path d="M1324,-18L1435,-33L1431,-63Z" fill="#db898c" stroke="#db898c"/><path d="M1431,-63L1435,-33L1543,-2Z" fill="#d4888b" stroke="#d4888b"/><path d="M1431,-63L1543,-2L1636,-22Z" fill="#cc8689" stroke="#cc8689"/><path d="M1431,-63L1636,-22L1807,-57Z" fill="#bf8388" stroke="#bf8388"/><path d="M1431,-63L1807,-57L1882,-82Z" fill="#b38086" stroke="#b38086"/><path d="M1435,-33L1405,54L1480,60Z" fill="#d7888b" stroke="#d7888b"/><path d="M1435,-33L1480,60L1543,-2Z" fill="#d3878a" stroke="#d3878a"/><path d="M1543,-2L1480,60L1527,86Z" fill="#cf8689" stroke="#cf8689"/><path d="M1543,-2L1527,86L1565,66Z" fill="#cb8588" stroke="#cb8588"/><path d="M1543,-2L1565,66L1620,63Z" fill="#c68488" stroke="#c68488"/><path d="M1543,-2L1620,63L1636,-22Z" fill="#c38488" stroke="#c38488"/><path d="M1636,-22L1620,63L1687,73Z" fill="#bc8286" stroke="#bc8286"/><path d="M1636,-22L1687,73L1755,-18Z" fill="#b58086" stroke="#b58086"/><path d="M1636,-22L1755,-18L1807,-57Z" fill="#af8086" stroke="#af8086"/><path d="M1755,-18L1687,73L1784,36Z" fill="#ae8085" stroke="#ae8085"/><path d="M1755,-18L1784,36L1807,-57Z" fill="#a88085" stroke="#a88085"/><path d="M1807,-57L1784,36L1850,48Z" fill="#a48084" stroke="#a48084"/><path d="M1807,-57L1850,48L1918,-44Z" fill="#9d8083" stroke="#9d8083"/><path d="M1807,-57L1918,-44L1882,-82Z" fill="#9c8083" stroke="#9c8083"/><path d="M1918,-44L1850,48L1936,14Z" fill="#978083" stroke="#978083"/><path d="M-29,78L-37,77L-58,170Z" fill="#fffcf8" stroke="#fffcf8"/><path d="M-29,78L-58,170L13,159Z" fill="#fff7ef" stroke="#fff7ef"/><path d="M-29,78L13,159L48,63Z" fill="#fffaf5" stroke="#fffaf5"/><path d="M48,63L13,159L64,160Z" fill="#fff5ec" stroke="#fff5ec"/><path d="M48,63L64,160L92,85Z" fill="#fff7f0" stroke="#fff7f0"/><path d="M48,63L92,85L101,8Z" fill="#fff6f1" stroke="#fff6f1"/><path d="M101,8L92,85L208,39Z" fill="#fff4ed" stroke="#fff4ed"/><path d="M208,39L92,85L216,144Z" fill="#fff2ea" stroke="#fff2ea"/><path d="M208,39L216,144L267,128Z" fill="#ffeee4" stroke="#ffeee4"/><path d="M208,39L267,128L278,11Z" fill="#ffece3" stroke="#ffece3"/><path d="M278,11L267,128L356,62Z" fill="#fee8dd" stroke="#fee8dd"/><path d="M356,62L267,128L355,123Z" fill="#fee6d9" stroke="#fee6d9"/><path d="M356,62L355,123L431,76Z" fill="#fee1d4" stroke="#fee1d4"/><path d="M356,62L431,76L405,47Z" fill="#fee0d2" stroke="#fee0d2"/><path d="M405,47L431,76L526,16Z" fill="#fedbcc" stroke="#fedbcc"/><path d="M526,16L431,76L543,89Z" fill="#fed6c7" stroke="#fed6c7"/><path d="M526,16L543,89L639,-3Z" fill="#fed0c0" stroke="#fed0c0"/><path d="M639,-3L543,89L620,115Z" fill="#fecdbc" stroke="#fecdbc"/><path d="M639,-3L620,115L709,4Z" fill="#fec7b6" stroke="#fec7b6"/><path d="M709,4L620,115L749,97Z" fill="#fec4b2" stroke="#fec4b2"/><path d="M709,4L749,97L776,11Z" fill="#febfae" stroke="#febfae"/><path d="M776,11L749,97L802,80Z" fill="#fdbcab" stroke="#fdbcab"/><path d="M802,80L749,97L831,123Z" fill="#fdbaa8" stroke="#fdbaa8"/><path d="M802,80L831,123L906,104Z" fill="#fdb5a3" stroke="#fdb5a3"/><path d="M802,80L906,104L923,30Z" fill="#fdb2a2" stroke="#fdb2a2"/><path d="M923,30L906,104L956,34Z" fill="#fbac9e" stroke="#fbac9e"/><path d="M956,34L906,104L1006,139Z" fill="#faa99c" stroke="#faa99c"/><path d="M956,34L1006,139L1055,124Z" fill="#f9a498" stroke="#f9a498"/><path d="M1104,5L1055,124L1124,78Z" fill="#f59b93" stroke="#f59b93"/><path d="M1104,5L1124,78L1198,24Z" fill="#f19792" stroke="#f19792"/><path d="M1124,78L1055,124L1102,199Z" fill="#f5978b" stroke="#f5978b"/><path d="M1124,78L1102,199L1158,194Z" fill="#f29183" stroke="#f29183"/><path d="M1124,78L1158,194L1195,121Z" fill="#ef9289" stroke="#ef9289"/><path d="M1124,78L1195,121L1198,24Z" fill="#ee9590" stroke="#ee9590"/><path d="M1198,24L1195,121L1237,89Z" fill="#eb918f" stroke="#eb918f"/><path d="M1198,24L1237,89L1313,-5Z" fill="#e88e8e" stroke="#e88e8e"/><path d="M1313,-5L1237,89L1280,112Z" fill="#e68c8d" stroke="#e68c8d"/><path d="M1313,-5L1280,112L1405,54Z" fill="#e18b8c" stroke="#e18b8c"/><path d="M1405,54L1280,112L1391,162Z" fill="#de8a89" stroke="#de8a89"/><path d="M1405,54L1391,162L1478,100Z" fill="#d88989" stroke="#d88989"/><path d="M1405,54L1478,100L1480,60Z" fill="#d68889" stroke="#d68889"/><path d="M1480,60L1478,100L1527,86Z" fill="#d28788" stroke="#d28788"/><path d="M1565,66L1527,86L1621,126Z" fill="#c78587" stroke="#c78587"/><path d="M1565,66L1621,126L1620,63Z" fill="#c28386" stroke="#c28386"/><path d="M1620,63L1621,126L1687,73Z" fill="#bd8285" stroke="#bd8285"/><path d="M1687,73L1621,126L1730,114Z" fill="#b78184" stroke="#b78184"/><path d="M1687,73L1730,114L1784,36Z" fill="#af8084" stroke="#af8084"/><path d="M1784,36L1730,114L1779,104Z" fill="#ab8083" stroke="#ab8083"/><path d="M1784,36L1779,104L1850,48Z" fill="#a58083" stroke="#a58083"/><path d="M1850,48L1779,104L1838,136Z" fill="#a28082" stroke="#a28082"/><path d="M1850,48L1838,136L1932,100Z" fill="#9b8081" stroke="#9b8081"/><path d="M1850,48L1932,100L1936,14Z" fill="#968081" stroke="#968081"/><path d="M1936,14L1932,100L1960,193Z" fill="#91807f" stroke="#91807f"/><path d="M1936,14L1960,193L1994,397Z" fill="#8e7165" stroke="#8e7165"/><path d="M13,159L-58,170L-80,239Z" fill="#fff0e2" stroke="#fff0e2"/><path d="M13,159L-80,239L63,238Z" fill="#ffead8" stroke="#ffead8"/><path d="M13,159L63,238L77,186Z" fill="#ffeada" stroke="#ffeada"/><path d="M13,159L77,186L64,160Z" fill="#ffeee1" stroke="#ffeee1"/><path d="M92,85L64,160L77,186Z" fill="#fff1e5" stroke="#fff1e5"/><path d="M92,85L77,186L216,144Z" fill="#ffefe3" stroke="#ffefe3"/><path d="M216,144L77,186L157,231Z" fill="#ffe7d5" stroke="#ffe7d5"/><path d="M216,144L157,231L242,176Z" fill="#ffe5d2" stroke="#ffe5d2"/><path d="M216,144L242,176L267,128Z" fill="#ffe7d7" stroke="#ffe7d7"/><path d="M267,128L242,176L322,195Z" fill="#fee1ce" stroke="#fee1ce"/><path d="M267,128L322,195L355,123Z" fill="#fee0cf" stroke="#fee0cf"/><path d="M355,123L322,195L464,212Z" fill="#fed7c0" stroke="#fed7c0"/><path d="M355,123L464,212L477,189Z" fill="#fed2bb" stroke="#fed2bb"/><path d="M355,123L477,189L431,76Z" fill="#fedac8" stroke="#fedac8"/><path d="M431,76L477,189L543,89Z" fill="#fed6c4" stroke="#fed6c4"/><path d="M543,89L477,189L620,115Z" fill="#feceba" stroke="#feceba"/><path d="M620,115L477,189L643,166Z" fill="#fec7af" stroke="#fec7af"/><path d="M620,115L643,166L697,159Z" fill="#fec2aa" stroke="#fec2aa"/><path d="M620,115L697,159L749,97Z" fill="#fec2ad" stroke="#fec2ad"/><path d="M697,159L643,166L715,235Z" fill="#feb99c" stroke="#feb99c"/><path d="M697,159L715,235L767,234Z" fill="#feb192" stroke="#feb192"/><path d="M697,159L767,234L831,180Z" fill="#fdb094" stroke="#fdb094"/><path d="M697,159L831,180L749,97Z" fill="#fdb8a1" stroke="#fdb8a1"/><path d="M749,97L831,180L831,123Z" fill="#fdb59f" stroke="#fdb59f"/><path d="M831,123L831,180L906,104Z" fill="#fdb09a" stroke="#fdb09a"/><path d="M906,104L831,180L928,224Z" fill="#fca78e" stroke="#fca78e"/><path d="M906,104L928,224L1006,139Z" fill="#fba38e" stroke="#fba38e"/><path d="M1006,139L928,224L1034,193Z" fill="#f99a83" stroke="#f99a83"/><path d="M1006,139L1034,193L1055,124Z" fill="#f89a89" stroke="#f89a89"/><path d="M1055,124L1034,193L1102,199Z" fill="#f79481" stroke="#f79481"/><path d="M1195,121L1158,194L1271,190Z" fill="#eb887d" stroke="#eb887d"/><path d="M1195,121L1271,190L1280,112Z" fill="#e88983" stroke="#e88983"/><path d="M1195,121L1280,112L1237,89Z" fill="#e98f8d" stroke="#e98f8d"/><path d="M1280,112L1271,190L1322,201Z" fill="#e4827b" stroke="#e4827b"/><path d="M1280,112L1322,201L1391,162Z" fill="#e1837c" stroke="#e1837c"/><path d="M1391,162L1322,201L1382,185Z" fill="#de7e75" stroke="#de7e75"/><path d="M1391,162L1382,185L1410,238Z" fill="#db7c71" stroke="#db7c71"/><path d="M1391,162L1410,238L1480,224Z" fill="#d8796d" stroke="#d8796d"/><path d="M1391,162L1480,224L1478,100Z" fill="#d68079" stroke="#d68079"/><path d="M1478,100L1480,224L1533,200Z" fill="#d27d75" stroke="#d27d75"/><path d="M1478,100L1533,200L1527,86Z" fill="#cf8381" stroke="#cf8381"/><path d="M1527,86L1533,200L1621,126Z" fill="#c9807e" stroke="#c9807e"/><path d="M1621,126L1533,200L1665,217Z" fill="#c27871" stroke="#c27871"/><path d="M1621,126L1665,217L1730,114Z" fill="#b87a78" stroke="#b87a78"/><path d="M1730,114L1665,217L1710,234Z" fill="#b4736d" stroke="#b4736d"/><path d="M1730,114L1710,234L1732,243Z" fill="#b1726a" stroke="#b1726a"/><path d="M1730,114L1732,243L1829,172Z" fill="#ab7570" stroke="#ab7570"/><path d="M1730,114L1829,172L1779,104Z" fill="#a97c7c" stroke="#a97c7c"/><path d="M1779,104L1829,172L1838,136Z" fill="#a37b79" stroke="#a37b79"/><path d="M1838,136L1829,172L1907,164Z" fill="#9d7873" stroke="#9d7873"/><path d="M1838,136L1907,164L1932,100Z" fill="#987c79" stroke="#987c79"/><path d="M1932,100L1907,164L1960,193Z" fill="#927973" stroke="#927973"/><path d="M77,186L63,238L98,268Z" fill="#ffe2ce" stroke="#ffe2ce"/><path d="M77,186L98,268L157,231Z" fill="#ffe1cc" stroke="#ffe1cc"/><path d="M157,231L98,268L171,341Z" fill="#ffd4bc" stroke="#ffd4bc"/><path d="M157,231L171,341L219,249Z" fill="#ffd3bb" stroke="#ffd3bb"/><path d="M157,231L219,249L242,176Z" fill="#ffdfc8" stroke="#ffdfc8"/><path d="M242,176L219,249L322,195Z" fill="#ffddc5" stroke="#ffddc5"/><path d="M322,195L219,249L342,243Z" fill="#fed5bb" stroke="#fed5bb"/><path d="M322,195L342,243L464,212Z" fill="#fed1b6" stroke="#fed1b6"/><path d="M464,212L342,243L472,278Z" fill="#fec6a8" stroke="#fec6a8"/><path d="M464,212L472,278L504,245Z" fill="#fec1a2" stroke="#fec1a2"/><path d="M464,212L504,245L477,189Z" fill="#fec7aa" stroke="#fec7aa"/><path d="M477,189L504,245L643,166Z" fill="#fec4a8" stroke="#fec4a8"/><path d="M643,166L504,245L630,284Z" fill="#feb99a" stroke="#feb99a"/><path d="M643,166L630,284L688,267Z" fill="#feb191" stroke="#feb191"/><path d="M643,166L688,267L715,235Z" fill="#feb292" stroke="#feb292"/><path d="M715,235L688,267L778,288Z" fill="#fea584" stroke="#fea584"/><path d="M715,235L778,288L767,234Z" fill="#fda584" stroke="#fda584"/><path d="M767,234L778,288L877,245Z" fill="#fd9f7e" stroke="#fd9f7e"/><path d="M767,234L877,245L831,180Z" fill="#fda686" stroke="#fda686"/><path d="M831,180L877,245L928,224Z" fill="#fda182" stroke="#fda182"/><path d="M928,224L877,245L890,309Z" fill="#fc9576" stroke="#fc9576"/><path d="M928,224L890,309L966,315Z" fill="#fb8c6e" stroke="#fb8c6e"/><path d="M928,224L966,315L1034,193Z" fill="#fa9074" stroke="#fa9074"/><path d="M1034,193L966,315L1067,260Z" fill="#f8886e" stroke="#f8886e"/><path d="M1034,193L1067,260L1102,199Z" fill="#f78c75" stroke="#f78c75"/><path d="M1102,199L1067,260L1145,267Z" fill="#f4836d" stroke="#f4836d"/><path d="M1102,199L1145,267L1158,194Z" fill="#f18672" stroke="#f18672"/><path d="M1158,194L1145,267L1229,251Z" fill="#ee7e6c" stroke="#ee7e6c"/><path d="M1158,194L1229,251L1271,190Z" fill="#ea8171" stroke="#ea8171"/><path d="M1271,190L1229,251L1312,247Z" fill="#e6796b" stroke="#e6796b"/><path d="M1271,190L1312,247L1322,201Z" fill="#e37b6e" stroke="#e37b6e"/><path d="M1322,201L1312,247L1410,238Z" fill="#df7669" stroke="#df7669"/><path d="M1322,201L1410,238L1382,185Z" fill="#dd7a6e" stroke="#dd7a6e"/><path d="M1480,224L1410,238L1487,297Z" fill="#d56e60" stroke="#d56e60"/><path d="M1480,224L1487,297L1528,250Z" fill="#d26d5f" stroke="#d26d5f"/><path d="M1480,224L1528,250L1533,200Z" fill="#cf7467" stroke="#cf7467"/><path d="M1533,200L1528,250L1665,217Z" fill="#c67267" stroke="#c67267"/><path d="M1665,217L1528,250L1599,307Z" fill="#c3695d" stroke="#c3695d"/><path d="M1665,217L1599,307L1629,320Z" fill="#be6256" stroke="#be6256"/><path d="M1665,217L1629,320L1710,234Z" fill="#b9675b" stroke="#b9675b"/><path d="M1710,234L1629,320L1740,339Z" fill="#b55d51" stroke="#b55d51"/><path d="M1710,234L1740,339L1732,243Z" fill="#b06256" stroke="#b06256"/><path d="M1829,172L1732,243L1800,283Z" fill="#a86b60" stroke="#a86b60"/><path d="M1829,172L1800,283L1836,283Z" fill="#a3685c" stroke="#a3685c"/><path d="M1829,172L1836,283L1907,164Z" fill="#9d7165" stroke="#9d7165"/><path d="M1907,164L1836,283L1950,269Z" fill="#976a5c" stroke="#976a5c"/><path d="M1907,164L1950,269L1960,193Z" fill="#917063" stroke="#917063"/><path d="M1960,193L1950,269L1994,397Z" fill="#8d5f4e" stroke="#8d5f4e"/><path d="M-80,239L-81,465L2,393Z" fill="#ffcab5" stroke="#ffcab5"/><path d="M-80,239L2,393L55,320Z" fill="#ffd2bd" stroke="#ffd2bd"/><path d="M-80,239L55,320L63,238Z" fill="#ffddc9" stroke="#ffddc9"/><path d="M63,238L55,320L98,268Z" fill="#ffd8c3" stroke="#ffd8c3"/><path d="M98,268L55,320L80,373Z" fill="#ffcdb6" stroke="#ffcdb6"/><path d="M98,268L80,373L171,341Z" fill="#ffcab2" stroke="#ffcab2"/><path d="M219,249L171,341L243,302Z" fill="#ffccb3" stroke="#ffccb3"/><path d="M219,249L243,302L342,243Z" fill="#fecfb5" stroke="#fecfb5"/><path d="M243,302L171,341L226,402Z" fill="#ffc0a6" stroke="#ffc0a6"/><path d="M243,302L226,402L305,349Z" fill="#ffbca1" stroke="#ffbca1"/><path d="M243,302L305,349L342,243Z" fill="#fec5a9" stroke="#fec5a9"/><path d="M342,243L305,349L461,339Z" fill="#febc9d" stroke="#febc9d"/><path d="M342,243L461,339L472,278Z" fill="#febc9d" stroke="#febc9d"/><path d="M472,278L461,339L537,345Z" fill="#feae8d" stroke="#feae8d"/><path d="M472,278L537,345L504,245Z" fill="#feb494" stroke="#feb494"/><path d="M504,245L537,345L630,284Z" fill="#feae8d" stroke="#feae8d"/><path d="M630,284L537,345L624,395Z" fill="#fe9f7d" stroke="#fe9f7d"/><path d="M630,284L624,395L721,384Z" fill="#fe9774" stroke="#fe9774"/><path d="M630,284L721,384L729,373Z" fill="#fe9572" stroke="#fe9572"/><path d="M630,284L729,373L688,267Z" fill="#fe9f7c" stroke="#fe9f7c"/><path d="M688,267L729,373L778,288Z" fill="#fe9a77" stroke="#fe9a77"/><path d="M778,288L729,373L877,324Z" fill="#fd8f6c" stroke="#fd8f6c"/><path d="M778,288L877,324L877,245Z" fill="#fd9573" stroke="#fd9573"/><path d="M877,245L877,324L890,309Z" fill="#fc8f6e" stroke="#fc8f6e"/><path d="M890,309L877,324L887,328Z" fill="#fc8867" stroke="#fc8867"/><path d="M890,309L887,328L966,315Z" fill="#fc8665" stroke="#fc8665"/><path d="M966,315L887,328L914,483Z" fill="#fb7857" stroke="#fb7857"/><path d="M966,315L914,483L1028,386Z" fill="#fa6e50" stroke="#fa6e50"/><path d="M966,315L1028,386L1067,260Z" fill="#f9795d" stroke="#f9795d"/><path d="M1067,260L1028,386L1116,339Z" fill="#f77258" stroke="#f77258"/><path d="M1067,260L1116,339L1145,267Z" fill="#f47861" stroke="#f47861"/><path d="M1145,267L1116,339L1238,386Z" fill="#ef6a54" stroke="#ef6a54"/><path d="M1145,267L1238,386L1229,251Z" fill="#ec6d5a" stroke="#ec6d5a"/><path d="M1229,251L1238,386L1284,321Z" fill="#e86654" stroke="#e86654"/><path d="M1229,251L1284,321L1312,247Z" fill="#e66e5f" stroke="#e66e5f"/><path d="M1312,247L1284,321L1392,317Z" fill="#e16858" stroke="#e16858"/><path d="M1312,247L1392,317L1410,238Z" fill="#dd6d5f" stroke="#dd6d5f"/><path d="M1410,238L1392,317L1452,318Z" fill="#d96757" stroke="#d96757"/><path d="M1410,238L1452,318L1487,297Z" fill="#d66859" stroke="#d66859"/><path d="M1487,297L1452,318L1555,401Z" fill="#d25a4a" stroke="#d25a4a"/><path d="M1487,297L1555,401L1592,358Z" fill="#cb5546" stroke="#cb5546"/><path d="M1487,297L1592,358L1599,307Z" fill="#c95c4d" stroke="#c95c4d"/><path d="M1487,297L1599,307L1528,250Z" fill="#cc6557" stroke="#cc6557"/><path d="M1599,307L1592,358L1629,320Z" fill="#c2584a" stroke="#c2584a"/><path d="M1732,243L1740,339L1800,283Z" fill="#ac5e52" stroke="#ac5e52"/><path d="M1800,283L1740,339L1796,386Z" fill="#a95345" stroke="#a95345"/><path d="M1800,283L1796,386L1836,283Z" fill="#a45749" stroke="#a45749"/><path d="M1836,283L1796,386L1878,372Z" fill="#a05142" stroke="#a05142"/><path d="M1836,283L1878,372L1937,324Z" fill="#9a5545" stroke="#9a5545"/><path d="M1836,283L1937,324L1950,269Z" fill="#965d4e" stroke="#965d4e"/><path d="M1950,269L1937,324L1994,397Z" fill="#8e5543" stroke="#8e5543"/><path d="M2,393L-81,465L-11,483Z" fill="#ffb5a2" stroke="#ffb5a2"/><path d="M2,393L-11,483L65,458Z" fill="#ffb39f" stroke="#ffb39f"/><path d="M2,393L65,458L80,373Z" fill="#ffbba4" stroke="#ffbba4"/><path d="M2,393L80,373L55,320Z" fill="#ffc6af" stroke="#ffc6af"/><path d="M80,373L65,458L118,398Z" fill="#ffb9a2" stroke="#ffb9a2"/><path d="M80,373L118,398L171,341Z" fill="#ffc0a8" stroke="#ffc0a8"/><path d="M171,341L118,398L226,402Z" fill="#ffbba2" stroke="#ffbba2"/><path d="M305,349L226,402L321,388Z" fill="#feb397" stroke="#feb397"/><path d="M305,349L321,388L461,339Z" fill="#feb193" stroke="#feb193"/><path d="M321,388L226,402L315,417Z" fill="#feae92" stroke="#feae92"/><path d="M321,388L315,417L350,420Z" fill="#fea98c" stroke="#fea98c"/><path d="M321,388L350,420L439,409Z" fill="#fea687" stroke="#fea687"/><path d="M321,388L439,409L461,339Z" fill="#fea98a" stroke="#fea98a"/><path d="M461,339L439,409L533,395Z" fill="#fea281" stroke="#fea281"/><path d="M461,339L533,395L537,345Z" fill="#fea382" stroke="#fea382"/><path d="M537,345L533,395L624,395Z" fill="#fe9a78" stroke="#fe9a78"/><path d="M624,395L533,395L613,427Z" fill="#fe916f" stroke="#fe916f"/><path d="M624,395L613,427L706,410Z" fill="#fe8b68" stroke="#fe8b68"/><path d="M624,395L706,410L721,384Z" fill="#fe8b68" stroke="#fe8b68"/><path d="M721,384L706,410L763,470Z" fill="#fe805d" stroke="#fe805d"/><path d="M721,384L763,470L811,442Z" fill="#fd7b58" stroke="#fd7b58"/><path d="M721,384L811,442L729,373Z" fill="#fd8360" stroke="#fd8360"/><path d="M729,373L811,442L877,324Z" fill="#fd8360" stroke="#fd8360"/><path d="M877,324L811,442L887,328Z" fill="#fd815e" stroke="#fd815e"/><path d="M887,328L811,442L914,483Z" fill="#fd7452" stroke="#fd7452"/><path d="M1028,386L914,483L1012,475Z" fill="#fa6044" stroke="#fa6044"/><path d="M1028,386L1012,475L1100,441Z" fill="#f85c42" stroke="#f85c42"/><path d="M1028,386L1100,441L1116,339Z" fill="#f6644a" stroke="#f6644a"/><path d="M1116,339L1100,441L1153,401Z" fill="#f25f47" stroke="#f25f47"/><path d="M1116,339L1153,401L1238,386Z" fill="#ef5f4a" stroke="#ef5f4a"/><path d="M1153,401L1100,441L1190,428Z" fill="#f05740" stroke="#f05740"/><path d="M1153,401L1190,428L1238,386Z" fill="#ed5742" stroke="#ed5742"/><path d="M1238,386L1190,428L1286,419Z" fill="#e9523f" stroke="#e9523f"/><path d="M1238,386L1286,419L1284,321Z" fill="#e65746" stroke="#e65746"/><path d="M1284,321L1286,419L1392,317Z" fill="#e25b4a" stroke="#e25b4a"/><path d="M1392,317L1286,419L1433,460Z" fill="#dd4f3f" stroke="#dd4f3f"/><path d="M1392,317L1433,460L1452,318Z" fill="#d85646" stroke="#d85646"/><path d="M1452,318L1433,460L1555,401Z" fill="#d34e3e" stroke="#d34e3e"/><path d="M1592,358L1555,401L1644,478Z" fill="#c34637" stroke="#c34637"/><path d="M1592,358L1644,478L1629,320Z" fill="#c04b3d" stroke="#c04b3d"/><path d="M1629,320L1644,478L1740,339Z" fill="#b84b3e" stroke="#b84b3e"/><path d="M1740,339L1644,478L1761,478Z" fill="#b23d32" stroke="#b23d32"/><path d="M1740,339L1761,478L1796,386Z" fill="#ab4537" stroke="#ab4537"/><path d="M1796,386L1761,478L1842,397Z" fill="#a64032" stroke="#a64032"/><path d="M1796,386L1842,397L1878,372Z" fill="#a04839" stroke="#a04839"/><path d="M1878,372L1842,397L1909,474Z" fill="#9b4232" stroke="#9b4232"/><path d="M1878,372L1909,474L1994,397Z" fill="#934231" stroke="#934231"/><path d="M1878,372L1994,397L1937,324Z" fill="#924d3c" stroke="#924d3c"/><path d="M-81,465L-77,674L-77,602Z" fill="#fc9a94" stroke="#fc9a94"/><path d="M-81,465L-77,602L-11,483Z" fill="#ffa499" stroke="#ffa499"/><path d="M65,458L-11,483L47,562Z" fill="#ffa495" stroke="#ffa495"/><path d="M65,458L47,562L92,479Z" fill="#ffa292" stroke="#ffa292"/><path d="M65,458L92,479L118,398Z" fill="#ffb09a" stroke="#ffb09a"/><path d="M118,398L92,479L226,402Z" fill="#ffb29a" stroke="#ffb29a"/><path d="M226,402L92,479L232,560Z" fill="#ffa28e" stroke="#ffa28e"/><path d="M226,402L232,560L278,510Z" fill="#ff9b87" stroke="#ff9b87"/><path d="M226,402L278,510L315,417Z" fill="#fea58b" stroke="#fea58b"/><path d="M315,417L278,510L350,420Z" fill="#fea086" stroke="#fea086"/><path d="M350,420L278,510L385,549Z" fill="#fe927b" stroke="#fe927b"/><path d="M350,420L385,549L411,532Z" fill="#fe8d75" stroke="#fe8d75"/><path d="M350,420L411,532L439,409Z" fill="#fe987b" stroke="#fe987b"/><path d="M439,409L411,532L511,552Z" fill="#fe876d" stroke="#fe876d"/><path d="M439,409L511,552L574,496Z" fill="#fe8569" stroke="#fe8569"/><path d="M439,409L574,496L533,395Z" fill="#fe9271" stroke="#fe9271"/><path d="M533,395L574,496L613,427Z" fill="#fe8b6a" stroke="#fe8b6a"/><path d="M613,427L574,496L709,565Z" fill="#fe765a" stroke="#fe765a"/><path d="M613,427L709,565L706,410Z" fill="#fe795a" stroke="#fe795a"/><path d="M706,410L709,565L763,470Z" fill="#fe7154" stroke="#fe7154"/><path d="M763,470L709,565L719,563Z" fill="#fe634b" stroke="#fe634b"/><path d="M763,470L719,563L788,512Z" fill="#fd654b" stroke="#fd654b"/><path d="M763,470L788,512L811,442Z" fill="#fd6d4f" stroke="#fd6d4f"/><path d="M811,442L788,512L858,508Z" fill="#fd674a" stroke="#fd674a"/><path d="M811,442L858,508L914,483Z" fill="#fd6548" stroke="#fd6548"/><path d="M914,483L858,508L947,516Z" fill="#fc5a41" stroke="#fc5a41"/><path d="M914,483L947,516L1012,475Z" fill="#fa573e" stroke="#fa573e"/><path d="M1012,475L947,516L1021,501Z" fill="#f9523b" stroke="#f9523b"/><path d="M1012,475L1021,501L1096,483Z" fill="#f84f39" stroke="#f84f39"/><path d="M1012,475L1096,483L1100,441Z" fill="#f7523b" stroke="#f7523b"/><path d="M1100,441L1096,483L1139,503Z" fill="#f34c38" stroke="#f34c38"/><path d="M1100,441L1139,503L1190,428Z" fill="#f14e3a" stroke="#f14e3a"/><path d="M1190,428L1139,503L1211,528Z" fill="#ee4334" stroke="#ee4334"/><path d="M1190,428L1211,528L1285,484Z" fill="#ea4133" stroke="#ea4133"/><path d="M1190,428L1285,484L1286,419Z" fill="#e74838" stroke="#e74838"/><path d="M1285,484L1211,528L1213,571Z" fill="#e9342b" stroke="#e9342b"/><path d="M1285,484L1213,571L1301,613Z" fill="#e52c27" stroke="#e52c27"/><path d="M1285,484L1301,613L1339,522Z" fill="#e22d28" stroke="#e22d28"/><path d="M1285,484L1339,522L1286,419Z" fill="#e33d32" stroke="#e33d32"/><path d="M1286,419L1339,522L1433,460Z" fill="#df3f32" stroke="#df3f32"/><path d="M1433,460L1339,522L1443,478Z" fill="#da382e" stroke="#da382e"/><path d="M1433,460L1443,478L1542,481Z" fill="#d43a2f" stroke="#d43a2f"/><path d="M1433,460L1542,481L1555,401Z" fill="#d04032" stroke="#d04032"/><path d="M1443,478L1339,522L1438,530Z" fill="#da322a" stroke="#da322a"/><path d="M1443,478L1438,530L1542,481Z" fill="#d4342b" stroke="#d4342b"/><path d="M1555,401L1542,481L1644,478Z" fill="#c63c30" stroke="#c63c30"/><path d="M1644,478L1542,481L1625,522Z" fill="#c23029" stroke="#c23029"/><path d="M1644,478L1625,522L1676,565Z" fill="#bc2823" stroke="#bc2823"/><path d="M1644,478L1676,565L1733,551Z" fill="#b62421" stroke="#b62421"/><path d="M1644,478L1733,551L1761,478Z" fill="#b22b26" stroke="#b22b26"/><path d="M1761,478L1733,551L1787,554Z" fill="#ab2420" stroke="#ab2420"/><path d="M1761,478L1787,554L1881,544Z" fill="#a42520" stroke="#a42520"/><path d="M1761,478L1881,544L1909,474Z" fill="#9e2c24" stroke="#9e2c24"/><path d="M1761,478L1909,474L1842,397Z" fill="#a0392c" stroke="#a0392c"/><path d="M1909,474L1881,544L1976,547Z" fill="#94261e" stroke="#94261e"/><path d="M1909,474L1976,547L1994,397Z" fill="#8e3326" stroke="#8e3326"/><path d="M1994,397L1976,547L1996,794Z" fill="#871b17" stroke="#871b17"/><path d="M-11,483L-77,602L43,567Z" fill="#fe9b92" stroke="#fe9b92"/><path d="M-11,483L43,567L47,562Z" fill="#ff9b90" stroke="#ff9b90"/><path d="M47,562L43,567L100,646Z" fill="#fc9189" stroke="#fc9189"/><path d="M47,562L100,646L152,572Z" fill="#fb8e86" stroke="#fb8e86"/><path d="M47,562L152,572L92,479Z" fill="#ff988b" stroke="#ff988b"/><path d="M92,479L152,572L232,560Z" fill="#fe9587" stroke="#fe9587"/><path d="M232,560L152,572L206,584Z" fill="#fc8d81" stroke="#fc8d81"/><path d="M232,560L206,584L277,607Z" fill="#fb887c" stroke="#fb887c"/><path d="M232,560L277,607L278,510Z" fill="#fd8b7b" stroke="#fd8b7b"/><path d="M278,510L277,607L385,549Z" fill="#fd8776" stroke="#fd8776"/><path d="M385,549L277,607L375,627Z" fill="#fa7d6f" stroke="#fa7d6f"/><path d="M385,549L375,627L432,580Z" fill="#fa7a6a" stroke="#fa7a6a"/><path d="M385,549L432,580L411,532Z" fill="#fc7e6b" stroke="#fc7e6b"/><path d="M411,532L432,580L511,552Z" fill="#fc7a66" stroke="#fc7a66"/><path d="M511,552L432,580L490,599Z" fill="#fb7462" stroke="#fb7462"/><path d="M511,552L490,599L522,637Z" fill="#fa6e5d" stroke="#fa6e5d"/><path d="M511,552L522,637L622,623Z" fill="#f96957" stroke="#f96957"/><path d="M511,552L622,623L574,496Z" fill="#fc6f59" stroke="#fc6f59"/><path d="M574,496L622,623L709,565Z" fill="#fc6851" stroke="#fc6851"/><path d="M709,565L622,623L713,578Z" fill="#fa5f4b" stroke="#fa5f4b"/><path d="M709,565L713,578L719,563Z" fill="#fb5f49" stroke="#fb5f49"/><path d="M788,512L719,563L807,644Z" fill="#fb5943" stroke="#fb5943"/><path d="M788,512L807,644L858,508Z" fill="#fc5841" stroke="#fc5841"/><path d="M858,508L807,644L895,643Z" fill="#f94d3a" stroke="#f94d3a"/><path d="M858,508L895,643L947,516Z" fill="#fa4f3a" stroke="#fa4f3a"/><path d="M947,516L895,643L1016,567Z" fill="#f84635" stroke="#f84635"/><path d="M947,516L1016,567L1021,501Z" fill="#f94936" stroke="#f94936"/><path d="M1021,501L1016,567L1047,590Z" fill="#f74231" stroke="#f74231"/><path d="M1021,501L1047,590L1096,483Z" fill="#f84432" stroke="#f84432"/><path d="M1096,483L1047,590L1139,503Z" fill="#f54030" stroke="#f54030"/><path d="M1139,503L1047,590L1133,645Z" fill="#f1352b" stroke="#f1352b"/><path d="M1139,503L1133,645L1142,643Z" fill="#ed3028" stroke="#ed3028"/><path d="M1139,503L1142,643L1213,571Z" fill="#ec3229" stroke="#ec3229"/><path d="M1139,503L1213,571L1211,528Z" fill="#ed362b" stroke="#ed362b"/><path d="M1339,522L1301,613L1385,558Z" fill="#de2825" stroke="#de2825"/><path d="M1339,522L1385,558L1438,530Z" fill="#db2c26" stroke="#db2c26"/><path d="M1385,558L1301,613L1382,617Z" fill="#da2322" stroke="#da2322"/><path d="M1385,558L1382,617L1490,583Z" fill="#d52322" stroke="#d52322"/><path d="M1385,558L1490,583L1438,530Z" fill="#d62724" stroke="#d62724"/><path d="M1438,530L1490,583L1542,481Z" fill="#d32b25" stroke="#d32b25"/><path d="M1542,481L1490,583L1625,522Z" fill="#ca2924" stroke="#ca2924"/><path d="M1625,522L1490,583L1570,631Z" fill="#c5201f" stroke="#c5201f"/><path d="M1625,522L1570,631L1676,565Z" fill="#bd1f1f" stroke="#bd1f1f"/><path d="M1733,551L1676,565L1760,583Z" fill="#af1d1d" stroke="#af1d1d"/><path d="M1733,551L1760,583L1787,554Z" fill="#aa1e1d" stroke="#aa1e1d"/><path d="M1787,554L1760,583L1834,570Z" fill="#a41d1c" stroke="#a41d1c"/><path d="M1787,554L1834,570L1881,544Z" fill="#9f1f1c" stroke="#9f1f1c"/><path d="M1881,544L1834,570L1890,585Z" fill="#9a1d1b" stroke="#9a1d1b"/><path d="M1881,544L1890,585L1973,558Z" fill="#931e1a" stroke="#931e1a"/><path d="M1881,544L1973,558L1976,547Z" fill="#90201b" stroke="#90201b"/><path d="M1976,547L1973,558L1996,794Z" fill="#851214" stroke="#851214"/><path d="M-77,602L-77,674L43,681Z" fill="#f58e8c" stroke="#f58e8c"/><path d="M-77,602L43,681L43,567Z" fill="#fa908b" stroke="#fa908b"/><path d="M43,567L43,681L100,646Z" fill="#f98a86" stroke="#f98a86"/><path d="M152,572L100,646L182,679Z" fill="#f98680" stroke="#f98680"/><path d="M152,572L182,679L206,584Z" fill="#fa877f" stroke="#fa877f"/><path d="M206,584L182,679L277,607Z" fill="#f9837b" stroke="#f9837b"/><path d="M277,607L182,679L297,719Z" fill="#f27e76" stroke="#f27e76"/><path d="M277,607L297,719L375,627Z" fill="#f5796f" stroke="#f5796f"/><path d="M375,627L297,719L392,683Z" fill="#ef756b" stroke="#ef756b"/><path d="M375,627L392,683L432,580Z" fill="#f87366" stroke="#f87366"/><path d="M432,580L392,683L490,599Z" fill="#f87163" stroke="#f87163"/><path d="M490,599L392,683L522,637Z" fill="#f76b5e" stroke="#f76b5e"/><path d="M622,623L522,637L614,649Z" fill="#f76051" stroke="#f76051"/><path d="M622,623L614,649L698,653Z" fill="#f65a4a" stroke="#f65a4a"/><path d="M622,623L698,653L713,578Z" fill="#f85a49" stroke="#f85a49"/><path d="M713,578L698,653L760,683Z" fill="#f75343" stroke="#f75343"/><path d="M713,578L760,683L807,644Z" fill="#f75040" stroke="#f75040"/><path d="M713,578L807,644L719,563Z" fill="#fa5844" stroke="#fa5844"/><path d="M807,644L760,683L826,700Z" fill="#ee4c3c" stroke="#ee4c3c"/><path d="M807,644L826,700L885,680Z" fill="#ef4838" stroke="#ef4838"/><path d="M807,644L885,680L895,643Z" fill="#f24636" stroke="#f24636"/><path d="M895,643L885,680L972,721Z" fill="#eb4032" stroke="#eb4032"/><path d="M895,643L972,721L1016,567Z" fill="#f23b2f" stroke="#f23b2f"/><path d="M1016,567L972,721L1047,590Z" fill="#f3372d" stroke="#f3372d"/><path d="M1047,590L972,721L1025,721Z" fill="#ea352b" stroke="#ea352b"/><path d="M1047,590L1025,721L1076,696Z" fill="#ea3129" stroke="#ea3129"/><path d="M1047,590L1076,696L1133,645Z" fill="#ee2e27" stroke="#ee2e27"/><path d="M1142,643L1133,645L1171,790Z" fill="#de2925" stroke="#de2925"/><path d="M1142,643L1171,790L1283,719Z" fill="#d52423" stroke="#d52423"/><path d="M1142,643L1283,719L1263,648Z" fill="#dc2222" stroke="#dc2222"/><path d="M1142,643L1263,648L1213,571Z" fill="#e62624" stroke="#e62624"/><path d="M1213,571L1263,648L1301,613Z" fill="#e22423" stroke="#e22423"/><path d="M1301,613L1263,648L1296,653Z" fill="#de1e20" stroke="#de1e20"/><path d="M1301,613L1296,653L1382,617Z" fill="#db1e20" stroke="#db1e20"/><path d="M1382,617L1296,653L1374,716Z" fill="#d31c1f" stroke="#d31c1f"/><path d="M1382,617L1374,716L1477,658Z" fill="#ce1b1e" stroke="#ce1b1e"/><path d="M1382,617L1477,658L1490,583Z" fill="#d11d1f" stroke="#d11d1f"/><path d="M1490,583L1477,658L1570,631Z" fill="#ca1b1d" stroke="#ca1b1d"/><path d="M1570,631L1477,658L1538,685Z" fill="#c2181c" stroke="#c2181c"/><path d="M1570,631L1538,685L1670,673Z" fill="#b8161a" stroke="#b8161a"/><path d="M1570,631L1670,673L1676,565Z" fill="#b8171b" stroke="#b8171b"/><path d="M1676,565L1670,673L1760,583Z" fill="#af171b" stroke="#af171b"/><path d="M1760,583L1670,673L1737,711Z" fill="#a61218" stroke="#a61218"/><path d="M1760,583L1737,711L1834,707Z" fill="#9c1217" stroke="#9c1217"/><path d="M1760,583L1834,707L1834,570Z" fill="#9f1418" stroke="#9f1418"/><path d="M1834,570L1834,707L1906,662Z" fill="#951215" stroke="#951215"/><path d="M1834,570L1906,662L1890,585Z" fill="#961718" stroke="#961718"/><path d="M1890,585L1906,662L1973,558Z" fill="#8f1817" stroke="#8f1817"/><path d="M1973,558L1906,662L1922,709Z" fill="#8a1214" stroke="#8a1214"/><path d="M1973,558L1922,709L1996,794Z" fill="#7d1213" stroke="#7d1213"/><path d="M-77,674L-62,989L-34,917Z" fill="#b97e8e" stroke="#b97e8e"/><path d="M-77,674L-34,917L-32,777Z" fill="#d2878d" stroke="#d2878d"/><path d="M-77,674L-32,777L34,748Z" fill="#e48d8c" stroke="#e48d8c"/><path d="M-77,674L34,748L43,681Z" fill="#eb8c8a" stroke="#eb8c8a"/><path d="M43,681L34,748L155,752Z" fill="#e68884" stroke="#e68884"/><path d="M43,681L155,752L100,646Z" fill="#ed8783" stroke="#ed8783"/><path d="M100,646L155,752L182,679Z" fill="#ec8580" stroke="#ec8580"/><path d="M182,679L155,752L196,729Z" fill="#e7847d" stroke="#e7847d"/><path d="M182,679L196,729L297,719Z" fill="#e98179" stroke="#e98179"/><path d="M297,719L196,729L269,769Z" fill="#e37e76" stroke="#e37e76"/><path d="M297,719L269,769L373,717Z" fill="#e3796f" stroke="#e3796f"/><path d="M297,719L373,717L392,683Z" fill="#e9766b" stroke="#e9766b"/><path d="M392,683L373,717L418,722Z" fill="#e87266" stroke="#e87266"/><path d="M392,683L418,722L522,637Z" fill="#ee6e60" stroke="#ee6e60"/><path d="M418,722L373,717L403,796Z" fill="#e07166" stroke="#e07166"/><path d="M418,722L403,796L471,827Z" fill="#d36862" stroke="#d36862"/><path d="M418,722L471,827L532,802Z" fill="#d2645d" stroke="#d2645d"/><path d="M418,722L532,802L574,732Z" fill="#de6659" stroke="#de6659"/><path d="M418,722L574,732L522,637Z" fill="#ea685a" stroke="#ea685a"/><path d="M522,637L574,732L614,649Z" fill="#f06152" stroke="#f06152"/><path d="M614,649L574,732L646,772Z" fill="#e65e4e" stroke="#e65e4e"/><path d="M614,649L646,772L698,653Z" fill="#ec5a4a" stroke="#ec5a4a"/><path d="M698,653L646,772L760,683Z" fill="#e95545" stroke="#e95545"/><path d="M760,683L646,772L748,789Z" fill="#df5243" stroke="#df5243"/><path d="M760,683L748,789L826,700Z" fill="#e44e3e" stroke="#e44e3e"/><path d="M826,700L748,789L821,806Z" fill="#d9483c" stroke="#d9483c"/><path d="M826,700L821,806L875,762Z" fill="#dc4638" stroke="#dc4638"/><path d="M826,700L875,762L885,680Z" fill="#e64636" stroke="#e64636"/><path d="M885,680L875,762L972,721Z" fill="#e34033" stroke="#e34033"/><path d="M1025,721L972,721L981,799Z" fill="#db372d" stroke="#db372d"/><path d="M1025,721L981,799L1058,746Z" fill="#d7322b" stroke="#d7322b"/><path d="M1025,721L1058,746L1076,696Z" fill="#df3129" stroke="#df3129"/><path d="M1076,696L1058,746L1144,798Z" fill="#d72d27" stroke="#d72d27"/><path d="M1076,696L1144,798L1171,790Z" fill="#ce2726" stroke="#ce2726"/><path d="M1076,696L1171,790L1133,645Z" fill="#dc2a26" stroke="#dc2a26"/><path d="M1263,648L1283,719L1296,653Z" fill="#d71e20" stroke="#d71e20"/><path d="M1296,653L1283,719L1374,716Z" fill="#cf1d20" stroke="#cf1d20"/><path d="M1374,716L1283,719L1307,777Z" fill="#c61d1f" stroke="#c61d1f"/><path d="M1374,716L1307,777L1392,816Z" fill="#b8181f" stroke="#b8181f"/><path d="M1374,716L1392,816L1414,751Z" fill="#b8181e" stroke="#b8181e"/><path d="M1374,716L1414,751L1477,658Z" fill="#c31b1e" stroke="#c31b1e"/><path d="M1477,658L1414,751L1466,763Z" fill="#bd1a1d" stroke="#bd1a1d"/><path d="M1477,658L1466,763L1523,716Z" fill="#bc191c" stroke="#bc191c"/><path d="M1477,658L1523,716L1538,685Z" fill="#be191c" stroke="#be191c"/><path d="M1538,685L1523,716L1602,794Z" fill="#af171b" stroke="#af171b"/><path d="M1538,685L1602,794L1670,673Z" fill="#ab151a" stroke="#ab151a"/><path d="M1670,673L1602,794L1690,762Z" fill="#9e1419" stroke="#9e1419"/><path d="M1670,673L1690,762L1737,711Z" fill="#9d1218" stroke="#9d1218"/><path d="M1737,711L1690,762L1734,827Z" fill="#8c0e18" stroke="#8c0e18"/><path d="M1737,711L1734,827L1820,801Z" fill="#810c17" stroke="#810c17"/><path d="M1737,711L1820,801L1834,707Z" fill="#8a1217" stroke="#8a1217"/><path d="M1834,707L1820,801L1849,773Z" fill="#7e0f16" stroke="#7e0f16"/><path d="M1834,707L1849,773L1922,709Z" fill="#821215" stroke="#821215"/><path d="M1834,707L1922,709L1906,662Z" fill="#861215" stroke="#861215"/><path d="M1922,709L1849,773L1961,807Z" fill="#720e14" stroke="#720e14"/><path d="M1922,709L1961,807L1996,794Z" fill="#680d14" stroke="#680d14"/><path d="M-32,777L-34,917L-20,884Z" fill="#ba7c8c" stroke="#ba7c8c"/><path d="M-32,777L-20,884L79,809Z" fill="#c67e89" stroke="#c67e89"/><path d="M-32,777L79,809L34,748Z" fill="#d68588" stroke="#d68588"/><path d="M34,748L79,809L155,752Z" fill="#d98383" stroke="#d98383"/><path d="M155,752L79,809L193,829Z" fill="#cf7c80" stroke="#cf7c80"/><path d="M155,752L193,829L196,729Z" fill="#d87f7d" stroke="#d87f7d"/><path d="M196,729L193,829L269,769Z" fill="#d67c7a" stroke="#d67c7a"/><path d="M269,769L193,829L280,871Z" fill="#c67277" stroke="#c67277"/><path d="M269,769L280,871L378,835Z" fill="#c56c70" stroke="#c56c70"/><path d="M269,769L378,835L403,796Z" fill="#cd6c6b" stroke="#cd6c6b"/><path d="M269,769L403,796L373,717Z" fill="#db736b" stroke="#db736b"/><path d="M403,796L378,835L471,827Z" fill="#c66463" stroke="#c66463"/><path d="M532,802L471,827L547,861Z" fill="#c25858" stroke="#c25858"/><path d="M532,802L547,861L583,873Z" fill="#bd5254" stroke="#bd5254"/><path d="M532,802L583,873L646,772Z" fill="#c75451" stroke="#c75451"/><path d="M532,802L646,772L574,732Z" fill="#d85c51" stroke="#d85c51"/><path d="M646,772L583,873L722,813Z" fill="#c64d4a" stroke="#c64d4a"/><path d="M646,772L722,813L748,789Z" fill="#d04d45" stroke="#d04d45"/><path d="M748,789L722,813L739,826Z" fill="#ca4742" stroke="#ca4742"/><path d="M748,789L739,826L821,806Z" fill="#ca443f" stroke="#ca443f"/><path d="M875,762L821,806L919,805Z" fill="#cf3d35" stroke="#cf3d35"/><path d="M875,762L919,805L972,721Z" fill="#d73c32" stroke="#d73c32"/><path d="M919,805L821,806L940,835Z" fill="#c63634" stroke="#c63634"/><path d="M919,805L940,835L981,799Z" fill="#c53130" stroke="#c53130"/><path d="M919,805L981,799L972,721Z" fill="#d2362f" stroke="#d2362f"/><path d="M1058,746L981,799L1048,835Z" fill="#ca2b2a" stroke="#ca2b2a"/><path d="M1058,746L1048,835L1144,798Z" fill="#c72527" stroke="#c72527"/><path d="M1171,790L1144,798L1195,842Z" fill="#ba1c24" stroke="#ba1c24"/><path d="M1171,790L1195,842L1307,777Z" fill="#b81822" stroke="#b81822"/><path d="M1171,790L1307,777L1283,719Z" fill="#c41d21" stroke="#c41d21"/><path d="M1307,777L1195,842L1323,852Z" fill="#ad1120" stroke="#ad1120"/><path d="M1307,777L1323,852L1392,816Z" fill="#aa101f" stroke="#aa101f"/><path d="M1414,751L1392,816L1466,763Z" fill="#af151e" stroke="#af151e"/><path d="M1466,763L1392,816L1503,801Z" fill="#a7121d" stroke="#a7121d"/><path d="M1466,763L1503,801L1523,716Z" fill="#af161c" stroke="#af161c"/><path d="M1523,716L1503,801L1602,794Z" fill="#a5131b" stroke="#a5131b"/><path d="M1602,794L1503,801L1529,881Z" fill="#910a1b" stroke="#910a1b"/><path d="M1602,794L1529,881L1607,864Z" fill="#85051b" stroke="#85051b"/><path d="M1602,794L1607,864L1690,762Z" fill="#8a0a1a" stroke="#8a0a1a"/><path d="M1690,762L1607,864L1734,827Z" fill="#810619" stroke="#810619"/><path d="M1820,801L1734,827L1797,833Z" fill="#700517" stroke="#700517"/><path d="M1820,801L1797,833L1858,870Z" fill="#650316" stroke="#650316"/><path d="M1820,801L1858,870L1849,773Z" fill="#6a0616" stroke="#6a0616"/><path d="M1849,773L1858,870L1961,807Z" fill="#620615" stroke="#620615"/><path d="M1996,794L1961,807L1967,915Z" fill="#4e0213" stroke="#4e0213"/><path d="M-20,884L-34,917L41,963Z" fill="#a47b8a" stroke="#a47b8a"/><path d="M-20,884L41,963L101,886Z" fill="#a87987" stroke="#a87987"/><path d="M-20,884L101,886L79,809Z" fill="#b97886" stroke="#b97886"/><path d="M79,809L101,886L161,872Z" fill="#ba7582" stroke="#ba7582"/><path d="M79,809L161,872L193,829Z" fill="#c17680" stroke="#c17680"/><path d="M161,872L101,886L192,913Z" fill="#ae737f" stroke="#ae737f"/><path d="M161,872L192,913L193,829Z" fill="#b5727d" stroke="#b5727d"/><path d="M193,829L192,913L280,871Z" fill="#b5707a" stroke="#b5707a"/><path d="M280,871L192,913L274,920Z" fill="#aa6d77" stroke="#aa6d77"/><path d="M280,871L274,920L359,927Z" fill="#a86870" stroke="#a86870"/><path d="M280,871L359,927L378,835Z" fill="#b2656c" stroke="#b2656c"/><path d="M378,835L359,927L400,924Z" fill="#ac6268" stroke="#ac6268"/><path d="M378,835L400,924L471,827Z" fill="#b75f63" stroke="#b75f63"/><path d="M471,827L400,924L468,966Z" fill="#a85c60" stroke="#a85c60"/><path d="M471,827L468,966L547,861Z" fill="#af575b" stroke="#af575b"/><path d="M547,861L468,966L548,942Z" fill="#a25558" stroke="#a25558"/><path d="M547,861L548,942L583,873Z" fill="#ad5154" stroke="#ad5154"/><path d="M583,873L548,942L593,954Z" fill="#a25052" stroke="#a25052"/><path d="M583,873L593,954L718,959Z" fill="#a04a4c" stroke="#a04a4c"/><path d="M583,873L718,959L722,813Z" fill="#b04648" stroke="#b04648"/><path d="M722,813L718,959L739,826Z" fill="#b64143" stroke="#b64143"/><path d="M739,826L718,959L728,961Z" fill="#a54142" stroke="#a54142"/><path d="M739,826L728,961L792,955Z" fill="#a53f40" stroke="#a53f40"/><path d="M739,826L792,955L821,806Z" fill="#b73c3d" stroke="#b73c3d"/><path d="M821,806L792,955L849,955Z" fill="#a8383a" stroke="#a8383a"/><path d="M821,806L849,955L895,933Z" fill="#aa3537" stroke="#aa3537"/><path d="M821,806L895,933L940,835Z" fill="#b73235" stroke="#b73235"/><path d="M940,835L895,933L1004,958Z" fill="#a42b30" stroke="#a42b30"/><path d="M940,835L1004,958L1048,835Z" fill="#ae252d" stroke="#ae252d"/><path d="M940,835L1048,835L981,799Z" fill="#c02b2d" stroke="#c02b2d"/><path d="M1048,835L1004,958L1071,940Z" fill="#a0212a" stroke="#a0212a"/><path d="M1048,835L1071,940L1144,798Z" fill="#b01c27" stroke="#b01c27"/><path d="M1144,798L1071,940L1195,842Z" fill="#ab1825" stroke="#ab1825"/><path d="M1195,842L1071,940L1200,896Z" fill="#9e1625" stroke="#9e1625"/><path d="M1195,842L1200,896L1323,852Z" fill="#a21022" stroke="#a21022"/><path d="M1323,852L1200,896L1275,934Z" fill="#950d21" stroke="#950d21"/><path d="M1323,852L1275,934L1307,938Z" fill="#8d0c20" stroke="#8d0c20"/><path d="M1323,852L1307,938L1357,906Z" fill="#8d0b1f" stroke="#8d0b1f"/><path d="M1323,852L1357,906L1392,816Z" fill="#990b1f" stroke="#990b1f"/><path d="M1392,816L1357,906L1442,893Z" fill="#910a1e" stroke="#910a1e"/><path d="M1392,816L1442,893L1503,801Z" fill="#990b1d" stroke="#990b1d"/><path d="M1503,801L1442,893L1529,881Z" fill="#8d081c" stroke="#8d081c"/><path d="M1529,881L1442,893L1537,990Z" fill="#75071c" stroke="#75071c"/><path d="M1529,881L1537,990L1583,940Z" fill="#6a061b" stroke="#6a061b"/><path d="M1529,881L1583,940L1616,908Z" fill="#6f051b" stroke="#6f051b"/><path d="M1529,881L1616,908L1607,864Z" fill="#77051b" stroke="#77051b"/><path d="M1607,864L1616,908L1748,885Z" fill="#6b0219" stroke="#6b0219"/><path d="M1607,864L1748,885L1734,827Z" fill="#6f0118" stroke="#6f0118"/><path d="M1734,827L1748,885L1797,833Z" fill="#6a0017" stroke="#6a0017"/><path d="M1797,833L1748,885L1770,923Z" fill="#5d0017" stroke="#5d0017"/><path d="M1797,833L1770,923L1858,870Z" fill="#590016" stroke="#590016"/><path d="M1858,870L1770,923L1837,964Z" fill="#480016" stroke="#480016"/><path d="M1858,870L1837,964L1863,959Z" fill="#400016" stroke="#400016"/><path d="M1858,870L1863,959L1967,915Z" fill="#3f0015" stroke="#3f0015"/><path d="M1858,870L1967,915L1961,807Z" fill="#4b0014" stroke="#4b0014"/><path d="M-34,917L-62,989L41,963Z" fill="#987c8b" stroke="#987c8b"/><path d="M41,963L-62,989L53,991Z" fill="#8f7a89" stroke="#8f7a89"/><path d="M41,963L53,991L101,886Z" fill="#9b7885" stroke="#9b7885"/><path d="M101,886L53,991L164,1024Z" fill="#947682" stroke="#947682"/><path d="M101,886L164,1024L192,913Z" fill="#9d737f" stroke="#9d737f"/><path d="M192,913L164,1024L266,1014Z" fill="#8e717b" stroke="#8e717b"/><path d="M192,913L266,1014L274,920Z" fill="#9a6e77" stroke="#9a6e77"/><path d="M274,920L266,1014L359,927Z" fill="#986971" stroke="#986971"/><path d="M359,927L266,1014L398,1038Z" fill="#8a656c" stroke="#8a656c"/><path d="M359,927L398,1038L400,924Z" fill="#946167" stroke="#946167"/><path d="M400,924L398,1038L468,966Z" fill="#8f5e63" stroke="#8f5e63"/><path d="M548,942L468,966L503,1006Z" fill="#915659" stroke="#915659"/><path d="M548,942L503,1006L597,999Z" fill="#8d5255" stroke="#8d5255"/><path d="M548,942L597,999L593,954Z" fill="#934f51" stroke="#934f51"/><path d="M593,954L597,999L674,996Z" fill="#8d4b4d" stroke="#8d4b4d"/><path d="M593,954L674,996L718,959Z" fill="#924749" stroke="#924749"/><path d="M718,959L674,996L728,961Z" fill="#914345" stroke="#914345"/><path d="M728,961L674,996L835,986Z" fill="#8e3f41" stroke="#8e3f41"/><path d="M728,961L835,986L792,955Z" fill="#923c3d" stroke="#923c3d"/><path d="M849,955L792,955L835,986Z" fill="#933839" stroke="#933839"/><path d="M849,955L835,986L896,985Z" fill="#8f3536" stroke="#8f3536"/><path d="M849,955L896,985L895,933Z" fill="#953235" stroke="#953235"/><path d="M895,933L896,985L1004,958Z" fill="#932d31" stroke="#932d31"/><path d="M1004,958L896,985L1000,1015Z" fill="#88292f" stroke="#88292f"/><path d="M1004,958L1000,1015L1079,980Z" fill="#87222a" stroke="#87222a"/><path d="M1004,958L1079,980L1071,940Z" fill="#8f1f29" stroke="#8f1f29"/><path d="M1071,940L1079,980L1137,995Z" fill="#881b27" stroke="#881b27"/><path d="M1071,940L1137,995L1200,896Z" fill="#8e1825" stroke="#8e1825"/><path d="M1200,896L1137,995L1242,957Z" fill="#881323" stroke="#881323"/><path d="M1200,896L1242,957L1275,934Z" fill="#8b1022" stroke="#8b1022"/><path d="M1275,934L1242,957L1307,938Z" fill="#830d20" stroke="#830d20"/><path d="M1307,938L1242,957L1301,1042Z" fill="#750c20" stroke="#750c20"/><path d="M1307,938L1301,1042L1433,994Z" fill="#6c0b1f" stroke="#6c0b1f"/><path d="M1307,938L1433,994L1357,906Z" fill="#7a0a1f" stroke="#7a0a1f"/><path d="M1357,906L1433,994L1442,893Z" fill="#7b091e" stroke="#7b091e"/><path d="M1442,893L1433,994L1537,990Z" fill="#6c081d" stroke="#6c081d"/><path d="M1583,940L1537,990L1676,967Z" fill="#58041a" stroke="#58041a"/><path d="M1583,940L1676,967L1616,908Z" fill="#5e031a" stroke="#5e031a"/><path d="M1616,908L1676,967L1748,885Z" fill="#5c0119" stroke="#5c0119"/><path d="M1748,885L1676,967L1770,923Z" fill="#530018" stroke="#530018"/><path d="M1770,923L1676,967L1760,989Z" fill="#470018" stroke="#470018"/><path d="M1770,923L1760,989L1789,970Z" fill="#410017" stroke="#410017"/><path d="M1770,923L1789,970L1837,964Z" fill="#400017" stroke="#400017"/><path d="M1863,959L1837,964L1937,984Z" fill="#2e0015" stroke="#2e0015"/><path d="M1863,959L1937,984L1967,915Z" fill="#2e0014" stroke="#2e0014"/><path d="M-62,989L80,1028L53,991Z" fill="#887a88" stroke="#887a88"/><path d="M53,991L80,1028L164,1024Z" fill="#847683" stroke="#847683"/><path d="M80,1028L398,1038L164,1024Z" fill="#7f707b" stroke="#7f707b"/><path d="M164,1024L398,1038L266,1014Z" fill="#7f6b74" stroke="#7f6b74"/><path d="M398,1038L1301,1042L1000,1015Z" fill="#7c3033" stroke="#7c3033"/><path d="M398,1038L1000,1015L674,996Z" fill="#814546" stroke="#814546"/><path d="M398,1038L674,996L597,999Z" fill="#835154" stroke="#835154"/><path d="M398,1038L597,999L503,1006Z" fill="#82575a" stroke="#82575a"/><path d="M398,1038L503,1006L468,966Z" fill="#865b5f" stroke="#865b5f"/><path d="M674,996L1000,1015L835,986Z" fill="#873738" stroke="#873738"/><path d="M835,986L1000,1015L896,985Z" fill="#872f33" stroke="#872f33"/><path d="M1000,1015L1301,1042L1137,995Z" fill="#741725" stroke="#741725"/><path d="M1000,1015L1137,995L1079,980Z" fill="#811d28" stroke="#811d28"/><path d="M1137,995L1301,1042L1242,957Z" fill="#741122" stroke="#741122"/><path d="M1301,1042L1509,1028L1433,994Z" fill="#5b091e" stroke="#5b091e"/><path d="M1433,994L1509,1028L1537,990Z" fill="#5a081c" stroke="#5a081c"/><path d="M1509,1028L1937,984L1760,989Z" fill="#380018" stroke="#380018"/><path d="M1509,1028L1760,989L1676,967Z" fill="#470219" stroke="#470219"/><path d="M1509,1028L1676,967L1537,990Z" fill="#52051b" stroke="#52051b"/><path d="M1760,989L1937,984L1837,964Z" fill="#300016" stroke="#300016"/><path d="M1760,989L1837,964L1789,970Z" fill="#390017" stroke="#390017"/></g></svg>